<svg width="447" height="69" viewBox="0 0 447 69" fill="none" xmlns="http://www.w3.org/2000/svg">
<g clip-path="url(#clip0_161_3805)">
<path d="M71.6781 35.9015C75.3083 33.8165 78.9288 31.7145 82.5713 29.651C86.0288 27.6921 90.0967 29.4987 90.8804 33.3109C91.334 35.5161 90.3495 37.8984 88.3585 39.0587C81.8312 42.8624 75.2945 46.6511 68.7252 50.3818C66.6919 51.5365 64.5975 51.3241 62.7445 49.9091C60.8622 48.4725 60.269 46.491 60.7104 44.1847C61.2144 42.4291 62.368 41.2553 63.9412 40.3772C66.5423 38.9255 69.1012 37.3974 71.6781 35.9015Z" fill="#FABC05"/>
<path d="M74.3433 34.3853C70.7222 32.2841 67.0921 30.1994 63.4837 28.0769C60.0583 26.0619 59.5894 21.6359 62.4986 19.0506C64.1815 17.5556 66.7368 17.2168 68.7372 18.3609C75.2952 22.1118 81.8446 25.8787 88.36 29.7024C90.3766 30.8858 91.2396 32.8062 90.9412 35.1184C90.638 37.4665 89.2187 38.971 87.0008 39.7421C85.2282 40.1835 83.635 39.7712 82.088 38.8478C79.53 37.3209 76.9272 35.8688 74.3433 34.3853Z" fill="#109D58"/>
<path d="M41.3399 32.8986C39.0163 34.2187 36.6915 35.5364 34.3703 36.8606C33.0125 37.6352 31.6697 38.4362 30.3049 39.1979C27.5549 40.7328 24.2878 39.8331 22.7286 37.1296C21.2406 34.5497 22.0958 31.2049 24.7441 29.659C31.2194 25.8795 37.7113 22.1274 44.2267 18.4175C46.225 17.2796 48.2981 17.4227 50.146 18.7829C52.0962 20.2187 52.7347 22.239 52.2968 24.6076C52.0251 25.1806 51.8628 25.8525 51.4561 26.304C50.7945 27.0384 50.0425 27.7416 49.2053 28.258C46.6147 29.8554 43.9661 31.3588 41.3399 32.8986Z" fill="#E94436"/>
<path d="M38.6758 34.3794C40.981 35.7313 43.2846 37.0862 45.592 38.4343C46.9415 39.223 48.3066 39.9854 49.6486 40.7862C52.353 42.4006 53.2076 45.6796 51.6458 48.3816C50.1553 50.9604 46.8313 51.8924 44.1681 50.3715C37.6573 46.6534 31.1621 42.9076 24.6914 39.12C22.7069 37.9584 21.7943 36.0914 22.0485 33.811C22.3167 31.4039 23.747 29.8409 26.0172 29.0358C26.6492 28.9849 27.3122 28.7892 27.9068 28.9159C28.8736 29.1218 29.8587 29.4213 30.7244 29.8881C33.4032 31.3327 36.0294 32.8749 38.6758 34.3794Z" fill="#4385F3"/>
</g>
<path d="M125.593 24.8923C125.593 27.2043 124.907 29.0462 123.535 30.418C121.994 32.0518 119.967 32.8687 117.455 32.8687C115.05 32.8687 113.016 32.0364 111.351 30.3717C109.687 28.7071 108.854 26.6571 108.854 24.2218C108.854 21.7865 109.687 19.7365 111.351 18.0719C113.016 16.4073 115.05 15.5749 117.455 15.5749C118.673 15.5749 119.821 15.7907 120.9 16.2223C121.979 16.6539 122.865 17.2627 123.559 18.0488L122.033 19.5747C121.524 18.9582 120.861 18.4804 120.044 18.1413C119.243 17.7868 118.38 17.6095 117.455 17.6095C115.652 17.6095 114.126 18.2337 112.877 19.4822C111.644 20.7461 111.027 22.326 111.027 24.2218C111.027 26.1177 111.644 27.6975 112.877 28.9614C114.126 30.2099 115.652 30.8341 117.455 30.8341C119.104 30.8341 120.476 30.3717 121.57 29.4469C122.665 28.5221 123.297 27.2505 123.466 25.6321H117.455V23.6438H125.478C125.555 24.0754 125.593 24.4916 125.593 24.8923ZM127.047 26.8344C127.047 25.0927 127.594 23.6515 128.689 22.5109C129.799 21.3704 131.193 20.8001 132.874 20.8001C134.554 20.8001 135.941 21.3704 137.035 22.5109C138.145 23.6515 138.7 25.0927 138.7 26.8344C138.7 28.5915 138.145 30.0326 137.035 31.1578C135.941 32.2984 134.554 32.8687 132.874 32.8687C131.193 32.8687 129.799 32.2984 128.689 31.1578C127.594 30.0172 127.047 28.5761 127.047 26.8344ZM129.174 26.8344C129.174 28.052 129.529 29.0385 130.238 29.7937C130.947 30.549 131.825 30.9266 132.874 30.9266C133.922 30.9266 134.8 30.549 135.509 29.7937C136.218 29.0385 136.573 28.052 136.573 26.8344C136.573 25.6321 136.218 24.6534 135.509 23.8981C134.785 23.1275 133.906 22.7421 132.874 22.7421C131.841 22.7421 130.962 23.1275 130.238 23.8981C129.529 24.6534 129.174 25.6321 129.174 26.8344ZM139.985 26.8344C139.985 25.0927 140.532 23.6515 141.626 22.5109C142.736 21.3704 144.131 20.8001 145.811 20.8001C147.491 20.8001 148.878 21.3704 149.972 22.5109C151.082 23.6515 151.637 25.0927 151.637 26.8344C151.637 28.5915 151.082 30.0326 149.972 31.1578C148.878 32.2984 147.491 32.8687 145.811 32.8687C144.131 32.8687 142.736 32.2984 141.626 31.1578C140.532 30.0172 139.985 28.5761 139.985 26.8344ZM142.112 26.8344C142.112 28.052 142.466 29.0385 143.175 29.7937C143.884 30.549 144.763 30.9266 145.811 30.9266C146.859 30.9266 147.737 30.549 148.447 29.7937C149.156 29.0385 149.51 28.052 149.51 26.8344C149.51 25.6321 149.156 24.6534 148.447 23.8981C147.722 23.1275 146.844 22.7421 145.811 22.7421C144.778 22.7421 143.9 23.1275 143.175 23.8981C142.466 24.6534 142.112 25.6321 142.112 26.8344ZM158.656 30.9266C159.704 30.9266 160.559 30.549 161.222 29.7937C161.916 29.0385 162.262 28.052 162.262 26.8344C162.262 25.6476 161.916 24.6688 161.222 23.8981C160.544 23.1275 159.688 22.7421 158.656 22.7421C157.638 22.7421 156.783 23.1275 156.089 23.8981C155.396 24.6688 155.049 25.6476 155.049 26.8344C155.049 28.0366 155.396 29.0154 156.089 29.7706C156.783 30.5413 157.638 30.9266 158.656 30.9266ZM158.586 37.8626C157.954 37.8626 157.361 37.7778 156.806 37.6083C156.251 37.4542 155.742 37.2307 155.28 36.9378C154.833 36.645 154.448 36.2982 154.124 35.8974C153.8 35.4967 153.554 35.0497 153.384 34.5565L155.396 33.7241C155.627 34.3869 156.028 34.9187 156.598 35.3194C157.168 35.7202 157.831 35.9205 158.586 35.9205C159.742 35.9205 160.644 35.5737 161.291 34.8801C161.939 34.1865 162.262 33.2309 162.262 32.0133V30.9266H162.17C161.769 31.5277 161.222 32.0056 160.528 32.3601C159.85 32.6992 159.11 32.8687 158.309 32.8687C156.829 32.8687 155.558 32.2907 154.494 31.1347C153.446 29.9479 152.922 28.5144 152.922 26.8344C152.922 25.1543 153.446 23.7286 154.494 22.5572C155.558 21.3858 156.829 20.8001 158.309 20.8001C159.11 20.8001 159.85 20.9773 160.528 21.3318C161.222 21.6709 161.769 22.141 162.17 22.7421H162.262V21.17H164.297V32.0133C164.297 33.832 163.781 35.2578 162.748 36.2905C161.7 37.3386 160.313 37.8626 158.586 37.8626ZM169.017 15.9449V32.4988H166.89V15.9449H169.017ZM176.583 32.8687C174.918 32.8687 173.546 32.2984 172.467 31.1578C171.388 30.0172 170.849 28.5761 170.849 26.8344C170.849 25.1081 171.373 23.6746 172.421 22.5341C173.469 21.3781 174.81 20.8001 176.444 20.8001C178.124 20.8001 179.457 21.3472 180.444 22.4416C181.446 23.5205 181.946 25.0387 181.946 26.9962L181.923 27.2274H173.022C173.053 28.3372 173.423 29.2312 174.132 29.9093C174.841 30.5875 175.689 30.9266 176.675 30.9266C178.031 30.9266 179.095 30.2484 179.866 28.8921L181.762 29.8169C181.253 30.7725 180.544 31.52 179.634 32.0595C178.741 32.599 177.723 32.8687 176.583 32.8687ZM173.184 25.4703H179.681C179.619 24.6842 179.295 24.0369 178.71 23.5282C178.139 23.0042 177.369 22.7421 176.398 22.7421C175.596 22.7421 174.903 22.9888 174.317 23.482C173.747 23.9752 173.369 24.638 173.184 25.4703ZM189.342 32.4988V15.9449H194.405C196.933 15.9449 198.96 16.7078 200.485 18.2337C202.027 19.7597 202.797 21.7557 202.797 24.2218C202.797 26.7034 202.027 28.7071 200.485 30.233C198.96 31.7435 196.933 32.4988 194.405 32.4988H189.342ZM191.469 17.9794V30.4642H194.405C196.332 30.4642 197.85 29.917 198.96 28.8227C200.069 27.7129 200.624 26.1793 200.624 24.2218C200.624 22.2797 200.069 20.7538 198.96 19.6441C197.85 18.5343 196.332 17.9794 194.405 17.9794H191.469ZM209.705 32.8687C208.04 32.8687 206.668 32.2984 205.589 31.1578C204.51 30.0172 203.971 28.5761 203.971 26.8344C203.971 25.1081 204.495 23.6746 205.543 22.5341C206.591 21.3781 207.932 20.8001 209.566 20.8001C211.246 20.8001 212.579 21.3472 213.566 22.4416C214.568 23.5205 215.069 25.0387 215.069 26.9962L215.045 27.2274H206.144C206.175 28.3372 206.545 29.2312 207.254 29.9093C207.963 30.5875 208.811 30.9266 209.797 30.9266C211.154 30.9266 212.217 30.2484 212.988 28.8921L214.884 29.8169C214.375 30.7725 213.666 31.52 212.757 32.0595C211.863 32.599 210.845 32.8687 209.705 32.8687ZM206.306 25.4703H212.803C212.741 24.6842 212.417 24.0369 211.832 23.5282C211.261 23.0042 210.491 22.7421 209.52 22.7421C208.718 22.7421 208.025 22.9888 207.439 23.482C206.869 23.9752 206.491 24.638 206.306 25.4703ZM222.291 32.4988H220.163L215.586 21.17H217.898L221.227 29.9556H221.273L224.649 21.17H226.915L222.291 32.4988ZM233.051 32.8687C231.386 32.8687 230.014 32.2984 228.935 31.1578C227.856 30.0172 227.317 28.5761 227.317 26.8344C227.317 25.1081 227.841 23.6746 228.889 22.5341C229.937 21.3781 231.278 20.8001 232.912 20.8001C234.592 20.8001 235.925 21.3472 236.912 22.4416C237.913 23.5205 238.414 25.0387 238.414 26.9962L238.391 27.2274H229.49C229.521 28.3372 229.891 29.2312 230.6 29.9093C231.309 30.5875 232.157 30.9266 233.143 30.9266C234.499 30.9266 235.563 30.2484 236.334 28.8921L238.229 29.8169C237.721 30.7725 237.012 31.52 236.102 32.0595C235.208 32.599 234.191 32.8687 233.051 32.8687ZM229.652 25.4703H236.149C236.087 24.6842 235.763 24.0369 235.178 23.5282C234.607 23.0042 233.837 22.7421 232.866 22.7421C232.064 22.7421 231.37 22.9888 230.785 23.482C230.214 23.9752 229.837 24.638 229.652 25.4703ZM242.487 15.9449V32.4988H240.36V15.9449H242.487ZM244.318 26.8344C244.318 25.0927 244.865 23.6515 245.96 22.5109C247.069 21.3704 248.464 20.8001 250.144 20.8001C251.824 20.8001 253.212 21.3704 254.306 22.5109C255.416 23.6515 255.971 25.0927 255.971 26.8344C255.971 28.5915 255.416 30.0326 254.306 31.1578C253.212 32.2984 251.824 32.8687 250.144 32.8687C248.464 32.8687 247.069 32.2984 245.96 31.1578C244.865 30.0172 244.318 28.5761 244.318 26.8344ZM246.445 26.8344C246.445 28.052 246.8 29.0385 247.509 29.7937C248.218 30.549 249.096 30.9266 250.144 30.9266C251.192 30.9266 252.071 30.549 252.78 29.7937C253.489 29.0385 253.844 28.052 253.844 26.8344C253.844 25.6321 253.489 24.6534 252.78 23.8981C252.056 23.1275 251.177 22.7421 250.144 22.7421C249.112 22.7421 248.233 23.1275 247.509 23.8981C246.8 24.6534 246.445 25.6321 246.445 26.8344ZM263.339 30.9266C264.356 30.9266 265.211 30.5413 265.905 29.7706C266.599 29.0154 266.945 28.0366 266.945 26.8344C266.945 25.6476 266.599 24.6688 265.905 23.8981C265.211 23.1275 264.356 22.7421 263.339 22.7421C262.306 22.7421 261.443 23.1275 260.749 23.8981C260.071 24.6688 259.732 25.6476 259.732 26.8344C259.732 28.0366 260.071 29.0231 260.749 29.7937C261.443 30.549 262.306 30.9266 263.339 30.9266ZM263.685 32.8687C262.853 32.8687 262.09 32.6914 261.397 32.3369C260.718 31.9824 260.194 31.5123 259.824 30.9266H259.732L259.824 32.4988V37.4927H257.697V21.17H259.732V22.7421H259.824C260.194 22.1564 260.718 21.6863 261.397 21.3318C262.09 20.9773 262.853 20.8001 263.685 20.8001C265.181 20.8001 266.444 21.3858 267.477 22.5572C268.541 23.744 269.072 25.1697 269.072 26.8344C269.072 28.5144 268.541 29.9402 267.477 31.1116C266.444 32.283 265.181 32.8687 263.685 32.8687ZM276.107 32.8687C274.442 32.8687 273.071 32.2984 271.992 31.1578C270.913 30.0172 270.373 28.5761 270.373 26.8344C270.373 25.1081 270.897 23.6746 271.945 22.5341C272.994 21.3781 274.334 20.8001 275.968 20.8001C277.648 20.8001 278.982 21.3472 279.968 22.4416C280.97 23.5205 281.471 25.0387 281.471 26.9962L281.448 27.2274H272.547C272.577 28.3372 272.947 29.2312 273.656 29.9093C274.365 30.5875 275.213 30.9266 276.199 30.9266C277.556 30.9266 278.619 30.2484 279.39 28.8921L281.286 29.8169C280.777 30.7725 280.068 31.52 279.159 32.0595C278.265 32.599 277.248 32.8687 276.107 32.8687ZM272.708 25.4703H279.205C279.143 24.6842 278.82 24.0369 278.234 23.5282C277.664 23.0042 276.893 22.7421 275.922 22.7421C275.121 22.7421 274.427 22.9888 273.841 23.482C273.271 23.9752 272.893 24.638 272.708 25.4703ZM285.543 32.4988H283.416V21.17H285.451V23.0196H285.543C285.759 22.4185 286.198 21.9098 286.861 21.4937C287.539 21.0621 288.202 20.8463 288.849 20.8463C289.466 20.8463 289.99 20.9388 290.421 21.1237L289.774 23.1814C289.512 23.0735 289.096 23.0196 288.526 23.0196C287.724 23.0196 287.023 23.3433 286.422 23.9906C285.836 24.638 285.543 25.3932 285.543 26.2564V32.4988ZM312.743 24.8923C312.743 27.2043 312.057 29.0462 310.686 30.418C309.144 32.0518 307.117 32.8687 304.605 32.8687C302.2 32.8687 300.166 32.0364 298.501 30.3717C296.837 28.7071 296.004 26.6571 296.004 24.2218C296.004 21.7865 296.837 19.7365 298.501 18.0719C300.166 16.4073 302.2 15.5749 304.605 15.5749C305.823 15.5749 306.971 15.7907 308.05 16.2223C309.129 16.6539 310.015 17.2627 310.709 18.0488L309.183 19.5747C308.674 18.9582 308.011 18.4804 307.194 18.1413C306.393 17.7868 305.53 17.6095 304.605 17.6095C302.802 17.6095 301.276 18.2337 300.027 19.4822C298.794 20.7461 298.178 22.326 298.178 24.2218C298.178 26.1177 298.794 27.6975 300.027 28.9614C301.276 30.2099 302.802 30.8341 304.605 30.8341C306.254 30.8341 307.626 30.3717 308.72 29.4469C309.815 28.5221 310.447 27.2505 310.616 25.6321H304.605V23.6438H312.628C312.705 24.0754 312.743 24.4916 312.743 24.8923ZM316.633 32.4988H314.506V21.17H316.541V23.0196H316.633C316.849 22.4185 317.288 21.9098 317.951 21.4937C318.629 21.0621 319.292 20.8463 319.939 20.8463C320.556 20.8463 321.08 20.9388 321.511 21.1237L320.864 23.1814C320.602 23.0735 320.186 23.0196 319.616 23.0196C318.814 23.0196 318.113 23.3433 317.512 23.9906C316.926 24.638 316.633 25.3932 316.633 26.2564V32.4988ZM321.558 26.8344C321.558 25.0927 322.105 23.6515 323.199 22.5109C324.309 21.3704 325.704 20.8001 327.384 20.8001C329.064 20.8001 330.451 21.3704 331.546 22.5109C332.655 23.6515 333.21 25.0927 333.21 26.8344C333.21 28.5915 332.655 30.0326 331.546 31.1578C330.451 32.2984 329.064 32.8687 327.384 32.8687C325.704 32.8687 324.309 32.2984 323.199 31.1578C322.105 30.0172 321.558 28.5761 321.558 26.8344ZM323.685 26.8344C323.685 28.052 324.039 29.0385 324.748 29.7937C325.457 30.549 326.336 30.9266 327.384 30.9266C328.432 30.9266 329.311 30.549 330.02 29.7937C330.729 29.0385 331.083 28.052 331.083 26.8344C331.083 25.6321 330.729 24.6534 330.02 23.8981C329.295 23.1275 328.417 22.7421 327.384 22.7421C326.351 22.7421 325.473 23.1275 324.748 23.8981C324.039 24.6534 323.685 25.6321 323.685 26.8344ZM344.971 32.4988H342.937V30.9266H342.844C342.52 31.4815 342.02 31.9439 341.341 32.3138C340.679 32.6837 339.985 32.8687 339.261 32.8687C337.873 32.8687 336.802 32.4757 336.047 31.6896C335.307 30.8881 334.937 29.7552 334.937 28.2909V21.17H337.064V28.1522C337.11 30.0018 338.043 30.9266 339.862 30.9266C340.709 30.9266 341.418 30.5875 341.989 29.9093C342.559 29.2157 342.844 28.3911 342.844 27.4355V21.17H344.971V32.4988ZM353.109 30.9266C354.127 30.9266 354.982 30.5413 355.676 29.7706C356.369 29.0154 356.716 28.0366 356.716 26.8344C356.716 25.6476 356.369 24.6688 355.676 23.8981C354.982 23.1275 354.127 22.7421 353.109 22.7421C352.077 22.7421 351.213 23.1275 350.52 23.8981C349.842 24.6688 349.503 25.6476 349.503 26.8344C349.503 28.0366 349.842 29.0231 350.52 29.7937C351.213 30.549 352.077 30.9266 353.109 30.9266ZM353.456 32.8687C352.624 32.8687 351.861 32.6914 351.167 32.3369C350.489 31.9824 349.965 31.5123 349.595 30.9266H349.503L349.595 32.4988V37.4927H347.468V21.17H349.503V22.7421H349.595C349.965 22.1564 350.489 21.6863 351.167 21.3318C351.861 20.9773 352.624 20.8001 353.456 20.8001C354.951 20.8001 356.215 21.3858 357.248 22.5572C358.311 23.744 358.843 25.1697 358.843 26.8344C358.843 28.5144 358.311 29.9402 357.248 31.1116C356.215 32.283 354.951 32.8687 353.456 32.8687ZM369.348 29.3545C369.348 30.3409 368.917 31.1732 368.054 31.8514C367.19 32.5296 366.104 32.8687 364.794 32.8687C363.653 32.8687 362.651 32.5758 361.788 31.9901C360.925 31.389 360.308 30.6029 359.939 29.6319L361.834 28.8227C362.112 29.5009 362.513 30.0326 363.037 30.418C363.576 30.7879 364.162 30.9729 364.794 30.9729C365.472 30.9729 366.034 30.8264 366.481 30.5336C366.944 30.2407 367.175 29.8939 367.175 29.4932C367.175 28.7688 366.62 28.237 365.51 27.8979L363.568 27.4124C361.364 26.8575 360.262 25.794 360.262 24.2218C360.262 23.1891 360.678 22.3645 361.511 21.748C362.358 21.116 363.437 20.8001 364.747 20.8001C365.749 20.8001 366.651 21.039 367.453 21.5168C368.269 21.9946 368.84 22.6342 369.163 23.4357L367.268 24.2218C367.052 23.744 366.697 23.3741 366.204 23.1121C365.726 22.8346 365.187 22.6959 364.586 22.6959C364.031 22.6959 363.53 22.8346 363.083 23.1121C362.651 23.3895 362.435 23.7286 362.435 24.1293C362.435 24.7767 363.044 25.2391 364.262 25.5165L365.973 25.9558C368.223 26.5107 369.348 27.6436 369.348 29.3545Z" fill="white"/>
<path d="M121.008 48.4736C121.008 50.2576 120.414 51.7499 119.224 52.9504C118.024 54.1622 116.554 54.7681 114.815 54.7681C113.065 54.7681 111.595 54.1622 110.405 52.9504C109.216 51.7499 108.621 50.2576 108.621 48.4736C108.621 46.6897 109.216 45.1974 110.405 43.9969C111.595 42.7851 113.065 42.1792 114.815 42.1792C116.565 42.1792 118.035 42.7907 119.224 44.0137C120.414 45.2142 121.008 46.7009 121.008 48.4736ZM110.204 48.4736C110.204 49.8649 110.641 51.015 111.516 51.9238C112.403 52.8326 113.502 53.287 114.815 53.287C116.128 53.287 117.222 52.8326 118.097 51.9238C118.983 51.0262 119.426 49.8761 119.426 48.4736C119.426 47.0711 118.983 45.9211 118.097 45.0235C117.222 44.1147 116.128 43.6603 114.815 43.6603C113.502 43.6603 112.403 44.1147 111.516 45.0235C110.641 45.9323 110.204 47.0824 110.204 48.4736ZM122.484 46.2521H123.965V47.3965H124.033C124.268 46.9926 124.627 46.656 125.11 46.3867C125.603 46.1174 126.114 45.9828 126.641 45.9828C127.651 45.9828 128.425 46.2745 128.964 46.858C129.513 47.4302 129.788 48.2492 129.788 49.3151V54.4988H128.24V49.4161C128.206 48.0697 127.528 47.3965 126.204 47.3965C125.586 47.3965 125.07 47.649 124.655 48.1539C124.24 48.6475 124.033 49.2422 124.033 49.9378V54.4988H122.484V46.2521ZM140.916 54.7681C139.132 54.7681 137.64 54.1678 136.439 52.9672C135.25 51.7667 134.655 50.2688 134.655 48.4736C134.655 46.6784 135.25 45.1862 136.439 43.9969C137.629 42.7851 139.121 42.1792 140.916 42.1792C142.734 42.1792 144.209 42.8356 145.342 44.1483L144.232 45.2254C143.368 44.182 142.263 43.6603 140.916 43.6603C139.581 43.6603 138.465 44.1091 137.567 45.0067C136.681 45.893 136.237 47.0487 136.237 48.4736C136.237 49.8986 136.681 51.0542 137.567 51.9406C138.465 52.8382 139.581 53.287 140.916 53.287C142.319 53.287 143.536 52.698 144.568 51.5199L145.696 52.6138C145.124 53.2982 144.422 53.8312 143.592 54.2127C142.762 54.5829 141.87 54.7681 140.916 54.7681ZM148.035 51.9743C148.035 52.3782 148.203 52.7148 148.54 52.9841C148.888 53.2534 149.292 53.388 149.752 53.388C150.402 53.388 150.98 53.1468 151.485 52.6643C152.001 52.1818 152.259 51.6152 152.259 50.9645C151.777 50.583 151.104 50.3923 150.24 50.3923C149.611 50.3923 149.084 50.5437 148.658 50.8467C148.243 51.1496 148.035 51.5255 148.035 51.9743ZM150.038 45.9828C151.182 45.9828 152.085 46.2913 152.747 46.9084C153.409 47.5143 153.74 48.3502 153.74 49.4161V54.4988H152.259V53.3543H152.192C151.552 54.2968 150.7 54.7681 149.634 54.7681C148.725 54.7681 147.962 54.4988 147.345 53.9602C146.739 53.4217 146.436 52.7485 146.436 51.9406C146.436 51.0879 146.756 50.4091 147.395 49.9042C148.046 49.3993 148.91 49.1468 149.987 49.1468C150.907 49.1468 151.665 49.3151 152.259 49.6517V49.2983C152.259 48.7597 152.046 48.3053 151.62 47.9351C151.193 47.5536 150.694 47.3629 150.122 47.3629C149.258 47.3629 148.574 47.7275 148.069 48.4568L146.705 47.5985C147.457 46.5214 148.568 45.9828 150.038 45.9828ZM157.035 54.4988H155.487V46.2521H156.968V47.3965H157.035C157.271 46.9926 157.63 46.656 158.112 46.3867C158.606 46.1174 159.094 45.9828 159.576 45.9828C160.182 45.9828 160.715 46.123 161.175 46.4035C161.635 46.684 161.972 47.0711 162.185 47.5648C162.869 46.5101 163.818 45.9828 165.029 45.9828C165.983 45.9828 166.718 46.2745 167.234 46.858C167.75 47.4414 168.008 48.2717 168.008 49.3488V54.4988H166.46V49.5844C166.46 48.8102 166.32 48.2548 166.039 47.9182C165.759 47.5704 165.287 47.3965 164.625 47.3965C164.031 47.3965 163.531 47.649 163.128 48.1539C162.724 48.6588 162.522 49.2534 162.522 49.9378V54.4988H160.973V49.5844C160.973 48.8102 160.833 48.2548 160.553 47.9182C160.272 47.5704 159.801 47.3965 159.139 47.3965C158.544 47.3965 158.045 47.649 157.641 48.1539C157.237 48.6588 157.035 49.2534 157.035 49.9378V54.4988ZM173.858 53.3543C174.598 53.3543 175.221 53.0738 175.726 52.5128C176.231 51.9631 176.483 51.2506 176.483 50.3754C176.483 49.5115 176.231 48.799 175.726 48.238C175.221 47.677 174.598 47.3965 173.858 47.3965C173.106 47.3965 172.478 47.677 171.973 48.238C171.479 48.799 171.232 49.5115 171.232 50.3754C171.232 51.2506 171.479 51.9687 171.973 52.5297C172.478 53.0794 173.106 53.3543 173.858 53.3543ZM174.11 54.7681C173.504 54.7681 172.949 54.639 172.444 54.381C171.95 54.1229 171.569 53.7807 171.3 53.3543H171.232L171.3 54.4988V58.1341H169.751V46.2521H171.232V47.3965H171.3C171.569 46.9702 171.95 46.6279 172.444 46.3699C172.949 46.1118 173.504 45.9828 174.11 45.9828C175.199 45.9828 176.119 46.4092 176.87 47.2619C177.644 48.1258 178.032 49.1637 178.032 50.3754C178.032 51.5984 177.644 52.6363 176.87 53.489C176.119 54.3417 175.199 54.7681 174.11 54.7681ZM186.604 54.4988H185.123V53.3543H185.056C184.82 53.7583 184.456 54.0949 183.962 54.3641C183.48 54.6334 182.975 54.7681 182.447 54.7681C181.438 54.7681 180.658 54.4819 180.108 53.9097C179.57 53.3263 179.3 52.5016 179.3 51.4357V46.2521H180.849V51.3347C180.882 52.6811 181.561 53.3543 182.885 53.3543C183.502 53.3543 184.018 53.1075 184.433 52.6138C184.849 52.1089 185.056 51.5086 185.056 50.813V46.2521H186.604V54.4988ZM194.718 52.2099C194.718 52.928 194.404 53.5339 193.776 54.0275C193.148 54.5212 192.357 54.7681 191.403 54.7681C190.573 54.7681 189.843 54.5549 189.215 54.1285C188.587 53.6909 188.138 53.1187 187.869 52.4119L189.249 51.8228C189.451 52.3165 189.742 52.7036 190.124 52.9841C190.516 53.2534 190.943 53.388 191.403 53.388C191.897 53.388 192.306 53.2814 192.631 53.0682C192.968 52.855 193.136 52.6026 193.136 52.3109C193.136 51.7835 192.732 51.3964 191.925 51.1496L190.511 50.7962C188.906 50.3923 188.104 49.6181 188.104 48.4736C188.104 47.7219 188.407 47.1216 189.013 46.6728C189.63 46.2128 190.416 45.9828 191.369 45.9828C192.099 45.9828 192.755 46.1567 193.338 46.5045C193.933 46.8523 194.348 47.318 194.584 47.9014L193.204 48.4736C193.047 48.1258 192.789 47.8565 192.429 47.6658C192.082 47.4638 191.689 47.3629 191.251 47.3629C190.847 47.3629 190.483 47.4638 190.157 47.6658C189.843 47.8678 189.686 48.1146 189.686 48.4063C189.686 48.8776 190.129 49.2142 191.016 49.4161L192.261 49.7359C193.899 50.1398 194.718 50.9645 194.718 52.2099Z" fill="#639AF4"/>
<path d="M204.207 49.0459C204.207 49.5956 204.011 50.0725 203.618 50.4764C203.225 50.8691 202.749 51.0655 202.188 51.0655C201.638 51.0655 201.161 50.8691 200.757 50.4764C200.364 50.0725 200.168 49.5956 200.168 49.0459C200.168 48.4849 200.364 48.008 200.757 47.6153C201.161 47.2226 201.638 47.0263 202.188 47.0263C202.749 47.0263 203.225 47.2226 203.618 47.6153C204.011 48.008 204.207 48.4849 204.207 49.0459ZM212.018 54.4988H210.47V42.4485H212.018V47.6153H218.043V42.4485H219.592V54.4988H218.043V49.0627H212.018V54.4988ZM222.619 51.9743C222.619 52.3782 222.788 52.7148 223.124 52.9841C223.472 53.2534 223.876 53.388 224.336 53.388C224.987 53.388 225.565 53.1468 226.07 52.6643C226.586 52.1818 226.844 51.6152 226.844 50.9645C226.361 50.583 225.688 50.3923 224.824 50.3923C224.196 50.3923 223.669 50.5437 223.242 50.8467C222.827 51.1496 222.619 51.5255 222.619 51.9743ZM224.622 45.9828C225.767 45.9828 226.67 46.2913 227.332 46.9084C227.994 47.5143 228.325 48.3502 228.325 49.4161V54.4988H226.844V53.3543H226.777C226.137 54.2968 225.284 54.7681 224.218 54.7681C223.31 54.7681 222.547 54.4988 221.929 53.9602C221.324 53.4217 221.021 52.7485 221.021 51.9406C221.021 51.0879 221.34 50.4091 221.98 49.9042C222.631 49.3993 223.495 49.1468 224.572 49.1468C225.492 49.1468 226.249 49.3151 226.844 49.6517V49.2983C226.844 48.7597 226.631 48.3053 226.204 47.9351C225.778 47.5536 225.279 47.3629 224.706 47.3629C223.842 47.3629 223.158 47.7275 222.653 48.4568L221.29 47.5985C222.042 46.5214 223.152 45.9828 224.622 45.9828ZM231.62 42.4485V54.4988H230.071V42.4485H231.62ZM237.127 53.3543C237.89 53.3543 238.512 53.0794 238.995 52.5297C239.5 51.9799 239.752 51.2618 239.752 50.3754C239.752 49.5115 239.5 48.799 238.995 48.238C238.501 47.677 237.878 47.3965 237.127 47.3965C236.386 47.3965 235.763 47.677 235.259 48.238C234.754 48.799 234.501 49.5115 234.501 50.3754C234.501 51.2506 234.754 51.9631 235.259 52.5128C235.763 53.0738 236.386 53.3543 237.127 53.3543ZM236.874 54.7681C235.797 54.7681 234.871 54.3417 234.097 53.489C233.334 52.625 232.953 51.5872 232.953 50.3754C232.953 49.1637 233.334 48.1258 234.097 47.2619C234.871 46.4092 235.797 45.9828 236.874 45.9828C237.48 45.9828 238.03 46.1118 238.524 46.3699C239.028 46.6279 239.416 46.9702 239.685 47.3965H239.752L239.685 46.2521V42.4485H241.233V54.4988H239.752V53.3543H239.685C239.416 53.7807 239.028 54.1229 238.524 54.381C238.03 54.639 237.48 54.7681 236.874 54.7681ZM245.124 43.4078C245.124 43.7107 245.017 43.9688 244.804 44.182C244.591 44.3952 244.333 44.5018 244.03 44.5018C243.727 44.5018 243.469 44.3952 243.256 44.182C243.043 43.9688 242.936 43.7107 242.936 43.4078C242.936 43.1049 243.043 42.8468 243.256 42.6336C243.469 42.4204 243.727 42.3139 244.03 42.3139C244.333 42.3139 244.591 42.4204 244.804 42.6336C245.017 42.8468 245.124 43.1049 245.124 43.4078ZM244.804 46.2521V54.4988H243.256V46.2521H244.804ZM247.864 51.9743C247.864 52.3782 248.033 52.7148 248.369 52.9841C248.717 53.2534 249.121 53.388 249.581 53.388C250.232 53.388 250.81 53.1468 251.315 52.6643C251.831 52.1818 252.089 51.6152 252.089 50.9645C251.606 50.583 250.933 50.3923 250.069 50.3923C249.441 50.3923 248.914 50.5437 248.487 50.8467C248.072 51.1496 247.864 51.5255 247.864 51.9743ZM249.867 45.9828C251.012 45.9828 251.915 46.2913 252.577 46.9084C253.239 47.5143 253.57 48.3502 253.57 49.4161V54.4988H252.089V53.3543H252.022C251.382 54.2968 250.529 54.7681 249.463 54.7681C248.555 54.7681 247.792 54.4988 247.174 53.9602C246.569 53.4217 246.266 52.7485 246.266 51.9406C246.266 51.0879 246.585 50.4091 247.225 49.9042C247.876 49.3993 248.74 49.1468 249.817 49.1468C250.737 49.1468 251.494 49.3151 252.089 49.6517V49.2983C252.089 48.7597 251.876 48.3053 251.449 47.9351C251.023 47.5536 250.524 47.3629 249.951 47.3629C249.087 47.3629 248.403 47.7275 247.898 48.4568L246.535 47.5985C247.287 46.5214 248.397 45.9828 249.867 45.9828ZM260.832 54.4988H259.284V42.4485H260.832V54.4988ZM262.992 46.2521H264.473V47.3965H264.54C264.776 46.9926 265.135 46.656 265.617 46.3867C266.111 46.1174 266.621 45.9828 267.149 45.9828C268.158 45.9828 268.933 46.2745 269.471 46.858C270.021 47.4302 270.296 48.2492 270.296 49.3151V54.4988H268.748V49.4161C268.714 48.0697 268.035 47.3965 266.711 47.3965C266.094 47.3965 265.578 47.649 265.163 48.1539C264.748 48.6475 264.54 49.2422 264.54 49.9378V54.4988H262.992V46.2521ZM278.342 52.2099C278.342 52.928 278.028 53.5339 277.4 54.0275C276.772 54.5212 275.981 54.7681 275.027 54.7681C274.197 54.7681 273.467 54.5549 272.839 54.1285C272.211 53.6909 271.762 53.1187 271.493 52.4119L272.873 51.8228C273.075 52.3165 273.366 52.7036 273.748 52.9841C274.141 53.2534 274.567 53.388 275.027 53.388C275.521 53.388 275.93 53.2814 276.256 53.0682C276.592 52.855 276.76 52.6026 276.76 52.3109C276.76 51.7835 276.357 51.3964 275.549 51.1496L274.135 50.7962C272.53 50.3923 271.728 49.6181 271.728 48.4736C271.728 47.7219 272.031 47.1216 272.637 46.6728C273.254 46.2128 274.04 45.9828 274.993 45.9828C275.723 45.9828 276.379 46.1567 276.962 46.5045C277.557 46.8523 277.972 47.318 278.208 47.9014L276.828 48.4736C276.671 48.1258 276.413 47.8565 276.054 47.6658C275.706 47.4638 275.313 47.3629 274.875 47.3629C274.472 47.3629 274.107 47.4638 273.782 47.6658C273.467 47.8678 273.31 48.1146 273.31 48.4063C273.31 48.8776 273.753 49.2142 274.64 49.4161L275.885 49.7359C277.523 50.1398 278.342 50.9645 278.342 52.2099ZM282.873 54.6334C282.2 54.6334 281.639 54.4258 281.19 54.0107C280.752 53.5956 280.528 53.0177 280.517 52.2772V47.6658H279.069V46.2521H280.517V43.7276H282.065V46.2521H284.085V47.6658H282.065V51.7723C282.065 52.3221 282.172 52.698 282.385 52.8999C282.598 53.0907 282.839 53.186 283.109 53.186C283.232 53.186 283.35 53.1748 283.462 53.1524C283.585 53.1187 283.698 53.0794 283.799 53.0346L284.287 54.4146C283.883 54.5605 283.412 54.6334 282.873 54.6334ZM287.643 43.4078C287.643 43.7107 287.536 43.9688 287.323 44.182C287.11 44.3952 286.852 44.5018 286.549 44.5018C286.246 44.5018 285.988 44.3952 285.774 44.182C285.561 43.9688 285.455 43.7107 285.455 43.4078C285.455 43.1049 285.561 42.8468 285.774 42.6336C285.988 42.4204 286.246 42.3139 286.549 42.3139C286.852 42.3139 287.11 42.4204 287.323 42.6336C287.536 42.8468 287.643 43.1049 287.643 43.4078ZM287.323 46.2521V54.4988H285.774V46.2521H287.323ZM292.521 54.6334C291.847 54.6334 291.286 54.4258 290.838 54.0107C290.4 53.5956 290.176 53.0177 290.164 52.2772V47.6658H288.717V46.2521H290.164V43.7276H291.713V46.2521H293.732V47.6658H291.713V51.7723C291.713 52.3221 291.819 52.698 292.033 52.8999C292.246 53.0907 292.487 53.186 292.756 53.186C292.88 53.186 292.998 53.1748 293.11 53.1524C293.233 53.1187 293.345 53.0794 293.446 53.0346L293.934 54.4146C293.53 54.5605 293.059 54.6334 292.521 54.6334ZM302.442 54.4988H300.961V53.3543H300.894C300.658 53.7583 300.294 54.0949 299.8 54.3641C299.317 54.6334 298.813 54.7681 298.285 54.7681C297.275 54.7681 296.496 54.4819 295.946 53.9097C295.407 53.3263 295.138 52.5016 295.138 51.4357V46.2521H296.686V51.3347C296.72 52.6811 297.399 53.3543 298.723 53.3543C299.34 53.3543 299.856 53.1075 300.271 52.6138C300.686 52.1089 300.894 51.5086 300.894 50.813V46.2521H302.442V54.4988ZM307.674 54.6334C307.001 54.6334 306.44 54.4258 305.991 54.0107C305.554 53.5956 305.329 53.0177 305.318 52.2772V47.6658H303.871V46.2521H305.318V43.7276H306.866V46.2521H308.886V47.6658H306.866V51.7723C306.866 52.3221 306.973 52.698 307.186 52.8999C307.399 53.0907 307.641 53.186 307.91 53.186C308.033 53.186 308.151 53.1748 308.263 53.1524C308.387 53.1187 308.499 53.0794 308.6 53.0346L309.088 54.4146C308.684 54.5605 308.213 54.6334 307.674 54.6334ZM313.979 54.7681C312.768 54.7681 311.769 54.3529 310.984 53.5226C310.198 52.6924 309.805 51.6433 309.805 50.3754C309.805 49.1188 310.187 48.0753 310.95 47.245C311.713 46.4035 312.689 45.9828 313.878 45.9828C315.101 45.9828 316.072 46.3811 316.79 47.1777C317.519 47.9631 317.884 49.0683 317.884 50.4932L317.867 50.6615H311.387C311.41 51.4694 311.679 52.1201 312.195 52.6138C312.711 53.1075 313.329 53.3543 314.047 53.3543C315.034 53.3543 315.808 52.8607 316.369 51.8733L317.749 52.5465C317.379 53.2421 316.863 53.7863 316.201 54.179C315.55 54.5717 314.81 54.7681 313.979 54.7681ZM311.505 49.3825H316.235C316.19 48.8102 315.954 48.339 315.528 47.9687C315.113 47.5873 314.552 47.3965 313.845 47.3965C313.261 47.3965 312.756 47.576 312.33 47.9351C311.915 48.2941 311.64 48.7766 311.505 49.3825ZM322.527 50.3754C322.527 49.1076 322.925 48.0585 323.722 47.2282C324.529 46.3979 325.545 45.9828 326.768 45.9828C327.991 45.9828 329.001 46.3979 329.797 47.2282C330.605 48.0585 331.009 49.1076 331.009 50.3754C331.009 51.6545 330.605 52.7036 329.797 53.5226C329.001 54.3529 327.991 54.7681 326.768 54.7681C325.545 54.7681 324.529 54.3529 323.722 53.5226C322.925 52.6924 322.527 51.6433 322.527 50.3754ZM324.075 50.3754C324.075 51.2618 324.333 51.9799 324.849 52.5297C325.365 53.0794 326.005 53.3543 326.768 53.3543C327.531 53.3543 328.17 53.0794 328.686 52.5297C329.202 51.9799 329.461 51.2618 329.461 50.3754C329.461 49.5003 329.202 48.7878 328.686 48.238C328.159 47.677 327.519 47.3965 326.768 47.3965C326.016 47.3965 325.376 47.677 324.849 48.238C324.333 48.7878 324.075 49.5003 324.075 50.3754ZM335.972 42.3139C336.533 42.3139 336.993 42.4092 337.352 42.6L336.932 43.9632C336.662 43.8286 336.36 43.7612 336.023 43.7612C335.641 43.7612 335.327 43.8959 335.08 44.1652C334.845 44.4232 334.727 44.771 334.727 45.2086V46.2521H336.881V47.6658H334.727V54.4988H333.179V47.6658H331.63V46.2521H333.179V45.0571C333.179 44.2381 333.437 43.5761 333.953 43.0712C334.48 42.5663 335.153 42.3139 335.972 42.3139ZM345.765 43.9295V54.4988H344.217V43.9295H340.851V42.4485H349.131V43.9295H345.765ZM352.833 54.7681C351.621 54.7681 350.623 54.3529 349.837 53.5226C349.052 52.6924 348.659 51.6433 348.659 50.3754C348.659 49.1188 349.041 48.0753 349.804 47.245C350.567 46.4035 351.543 45.9828 352.732 45.9828C353.955 45.9828 354.925 46.3811 355.644 47.1777C356.373 47.9631 356.738 49.0683 356.738 50.4932L356.721 50.6615H350.241C350.264 51.4694 350.533 52.1201 351.049 52.6138C351.565 53.1075 352.182 53.3543 352.9 53.3543C353.888 53.3543 354.662 52.8607 355.223 51.8733L356.603 52.5465C356.233 53.2421 355.716 53.7863 355.055 54.179C354.404 54.5717 353.663 54.7681 352.833 54.7681ZM350.359 49.3825H355.088C355.043 48.8102 354.808 48.339 354.381 47.9687C353.966 47.5873 353.405 47.3965 352.698 47.3965C352.115 47.3965 351.61 47.576 351.184 47.9351C350.768 48.2941 350.494 48.7766 350.359 49.3825ZM362.006 54.7681C360.783 54.7681 359.767 54.3529 358.959 53.5226C358.163 52.6699 357.764 51.6208 357.764 50.3754C357.764 49.1076 358.163 48.0585 358.959 47.2282C359.767 46.3979 360.783 45.9828 362.006 45.9828C362.847 45.9828 363.582 46.196 364.21 46.6223C364.839 47.0375 365.31 47.6153 365.624 48.3558L364.21 48.9449C363.773 47.9126 363.004 47.3965 361.905 47.3965C361.198 47.3965 360.586 47.6826 360.07 48.2548C359.565 48.8271 359.313 49.5339 359.313 50.3754C359.313 51.2169 359.565 51.9238 360.07 52.496C360.586 53.0682 361.198 53.3543 361.905 53.3543C363.038 53.3543 363.834 52.8382 364.294 51.806L365.674 52.395C365.372 53.1355 364.895 53.719 364.244 54.1453C363.604 54.5605 362.858 54.7681 362.006 54.7681ZM367.029 42.4485H368.577V46.2521L368.51 47.3965H368.577C368.813 46.9926 369.172 46.656 369.654 46.3867C370.148 46.1174 370.658 45.9828 371.186 45.9828C372.195 45.9828 372.97 46.2745 373.508 46.858C374.058 47.4302 374.333 48.2492 374.333 49.3151V54.4988H372.785V49.6181C372.785 48.137 372.128 47.3965 370.815 47.3965C370.187 47.3965 369.654 47.6602 369.217 48.1875C368.79 48.7036 368.577 49.3095 368.577 50.0052V54.4988H367.029V42.4485ZM376.15 46.2521H377.631V47.3965H377.699C377.934 46.9926 378.293 46.656 378.776 46.3867C379.27 46.1174 379.78 45.9828 380.307 45.9828C381.317 45.9828 382.091 46.2745 382.63 46.858C383.18 47.4302 383.455 48.2492 383.455 49.3151V54.4988H381.906V49.4161C381.873 48.0697 381.194 47.3965 379.87 47.3965C379.253 47.3965 378.737 47.649 378.321 48.1539C377.906 48.6475 377.699 49.2422 377.699 49.9378V54.4988H376.15V46.2521ZM384.801 50.3754C384.801 49.1076 385.199 48.0585 385.996 47.2282C386.804 46.3979 387.819 45.9828 389.042 45.9828C390.265 45.9828 391.275 46.3979 392.071 47.2282C392.879 48.0585 393.283 49.1076 393.283 50.3754C393.283 51.6545 392.879 52.7036 392.071 53.5226C391.275 54.3529 390.265 54.7681 389.042 54.7681C387.819 54.7681 386.804 54.3529 385.996 53.5226C385.199 52.6924 384.801 51.6433 384.801 50.3754ZM386.349 50.3754C386.349 51.2618 386.607 51.9799 387.123 52.5297C387.64 53.0794 388.279 53.3543 389.042 53.3543C389.805 53.3543 390.445 53.0794 390.961 52.5297C391.477 51.9799 391.735 51.2618 391.735 50.3754C391.735 49.5003 391.477 48.7878 390.961 48.238C390.433 47.677 389.794 47.3965 389.042 47.3965C388.29 47.3965 387.651 47.677 387.123 48.238C386.607 48.7878 386.349 49.5003 386.349 50.3754ZM396.156 42.4485V54.4988H394.607V42.4485H396.156ZM397.489 50.3754C397.489 49.1076 397.887 48.0585 398.684 47.2282C399.492 46.3979 400.507 45.9828 401.73 45.9828C402.953 45.9828 403.963 46.3979 404.76 47.2282C405.568 48.0585 405.971 49.1076 405.971 50.3754C405.971 51.6545 405.568 52.7036 404.76 53.5226C403.963 54.3529 402.953 54.7681 401.73 54.7681C400.507 54.7681 399.492 54.3529 398.684 53.5226C397.887 52.6924 397.489 51.6433 397.489 50.3754ZM399.037 50.3754C399.037 51.2618 399.296 51.9799 399.812 52.5297C400.328 53.0794 400.967 53.3543 401.73 53.3543C402.493 53.3543 403.133 53.0794 403.649 52.5297C404.165 51.9799 404.423 51.2618 404.423 50.3754C404.423 49.5003 404.165 48.7878 403.649 48.238C403.122 47.677 402.482 47.3965 401.73 47.3965C400.979 47.3965 400.339 47.677 399.812 48.238C399.296 48.7878 399.037 49.5003 399.037 50.3754ZM411.081 53.3543C411.843 53.3543 412.466 53.0794 412.949 52.5297C413.454 51.9799 413.706 51.2618 413.706 50.3754C413.706 49.5115 413.454 48.799 412.949 48.238C412.455 47.677 411.832 47.3965 411.081 47.3965C410.34 47.3965 409.717 47.677 409.212 48.238C408.707 48.799 408.455 49.5115 408.455 50.3754C408.455 51.2506 408.707 51.9631 409.212 52.5128C409.717 53.0738 410.34 53.3543 411.081 53.3543ZM411.03 58.4033C410.57 58.4033 410.138 58.3416 409.734 58.2182C409.33 58.106 408.96 57.9433 408.623 57.7301C408.298 57.517 408.017 57.2645 407.782 56.9728C407.546 56.6811 407.367 56.3557 407.243 55.9966L408.707 55.3908C408.876 55.8732 409.167 56.2603 409.583 56.552C409.998 56.8438 410.48 56.9896 411.03 56.9896C411.872 56.9896 412.528 56.7372 412.999 56.2323C413.47 55.7274 413.706 55.0317 413.706 54.1453V53.3543H413.639C413.347 53.7919 412.949 54.1397 412.444 54.3978C411.95 54.6446 411.411 54.7681 410.828 54.7681C409.751 54.7681 408.825 54.3473 408.051 53.5058C407.288 52.6419 406.907 51.5984 406.907 50.3754C406.907 49.1524 407.288 48.1146 408.051 47.2619C408.825 46.4092 409.751 45.9828 410.828 45.9828C411.411 45.9828 411.95 46.1118 412.444 46.3699C412.949 46.6167 413.347 46.9589 413.639 47.3965H413.706V46.2521H415.187V54.1453C415.187 55.4693 414.811 56.5072 414.059 57.2589C413.296 58.0219 412.287 58.4033 411.03 58.4033ZM424.446 46.2521L419.28 58.1341H417.681L419.599 53.977L416.2 46.2521H417.883L420.34 52.1762H420.374L422.763 46.2521H424.446Z" fill="white"/>
<defs>
<clipPath id="clip0_161_3805">
<rect width="68.9976" height="68.9976" fill="white" transform="translate(22.0012)"/>
</clipPath>
</defs>
</svg>
